<svg width="222" height="63" viewBox="0 0 222 63" fill="none" xmlns="http://www.w3.org/2000/svg">
<g clip-path="url(#clip0_345_1552)">
<path d="M0 45.6029C0 45.6029 15.9494 44.0976 50.5089 16.479L45.9981 14.9737L49.58 12.4282H52.5912L69.0483 0H72.9884C72.9884 0 55.378 13.4645 45.9745 21.4637C36.5749 29.4628 28.0098 39.2233 25.3529 45.6068H0V45.6029Z" fill="#00BAFF"/>
<path d="M46.9034 23.6506C46.9034 23.6506 34.4926 36.1852 34.0479 45.5753H28.2499C28.2499 45.599 31.8318 36.1852 46.9034 23.6506Z" fill="#3775BA"/>
<path d="M206.244 39.113C205.228 38.9593 204.299 38.644 203.567 37.9426C202.681 37.0994 202.28 35.8581 202.217 34.6405C202.174 33.6003 202.327 32.5363 202.882 31.6694C203.567 30.5622 204.807 29.8529 206.07 29.518C207.334 29.183 208.656 29.187 209.987 29.187H222.004V32.7058C217.399 32.7058 212.801 32.7058 208.176 32.6821C207.491 32.6821 206.759 32.7058 206.232 33.151C205.834 33.482 205.633 34.014 205.72 34.5026C205.807 35.0149 206.165 35.4562 206.625 35.6296C206.976 35.7636 207.358 35.7636 207.731 35.7636H210.585C211.447 35.7636 212.376 35.6769 213.238 35.7872C214.722 36.0079 216.001 37.2294 216.6 38.5534C217.265 40.039 217.155 41.8319 216.379 43.2504C215.934 44.0937 215.273 44.8463 214.435 45.264C213.352 45.8196 212.065 45.8393 210.853 45.8393C206.118 45.8393 201.386 45.8157 196.651 45.8157V42.1629H211.144C211.939 42.1629 212.868 42.1195 213.403 41.4969C213.935 40.8743 213.777 39.7907 213.073 39.3691C212.604 39.0814 212.034 39.0814 211.502 39.1051C210.597 39.1287 209.688 39.1287 208.759 39.1484C207.94 39.2154 207.078 39.2154 206.259 39.1051H206.251L206.244 39.113Z" fill="#00BAFF"/>
<path d="M118.235 39.113C117.219 38.9593 116.29 38.644 115.558 37.9426C114.672 37.0994 114.271 35.8581 114.208 34.6405C114.165 33.6003 114.318 32.5363 114.873 31.6694C115.558 30.5622 116.798 29.8529 118.061 29.518C119.325 29.183 120.648 29.187 121.978 29.187H133.995V32.7058C129.39 32.7058 124.792 32.7058 120.167 32.6821C119.482 32.6821 118.75 32.7058 118.223 33.151C117.825 33.482 117.625 34.014 117.711 34.5026C117.798 35.0149 118.156 35.4562 118.616 35.6296C118.967 35.7636 119.349 35.7636 119.723 35.7636H122.576C123.438 35.7636 124.367 35.6769 125.229 35.7872C126.713 36.0079 127.992 37.2294 128.591 38.5534C129.256 40.039 129.146 41.8319 128.37 43.2504C127.926 44.0937 127.264 44.8463 126.426 45.264C125.343 45.8196 124.056 45.8393 122.844 45.8393C118.109 45.8393 113.377 45.8157 108.642 45.8157V42.1629H123.135C123.93 42.1629 124.859 42.1195 125.395 41.4969C125.926 40.8743 125.769 39.7907 125.064 39.3691C124.596 39.0814 124.025 39.0814 123.493 39.1051C122.588 39.1287 121.679 39.1287 120.75 39.1484C119.931 39.2154 119.069 39.2154 118.25 39.1051H118.243L118.235 39.113Z" fill="#00BAFF"/>
<path d="M189.452 29.1672H192.813V31.1138C194.494 29.5179 196.974 29.0096 199.273 29.1672V32.7097C197.659 32.623 195.954 32.8634 194.648 33.8603C193.01 35.0976 192.77 36.8748 192.77 38.778V45.6659H189.452V29.1633V29.1672Z" fill="#00BAFF"/>
<path d="M159.982 21.1918H156.707V45.6462H159.982V21.1918Z" fill="#00BAFF"/>
<path d="M153.145 32.292H149.87V45.6265H153.145V32.292Z" fill="#00BAFF"/>
<path d="M135.137 21.3691H131.862V45.7526H135.137V21.3691Z" fill="#00BAFF"/>
<path d="M176.045 29.3879H147.303V32.6664H176.045V29.3879Z" fill="#00BAFF"/>
<path d="M167.24 21.1918H163.965V45.6462H167.24V21.1918Z" fill="#00BAFF"/>
<path d="M135.137 35.3025L141.753 29.3879H146.89L137.573 37.4737L147.134 45.6265H142.135L135.141 39.9129L134.365 36.394L135.141 35.3065L135.137 35.3025Z" fill="#00BAFF"/>
<path d="M151.531 28.2373C152.385 28.2373 153.082 27.5438 153.082 26.6848C153.082 25.8257 152.389 25.1322 151.531 25.1322C150.673 25.1322 149.98 25.8257 149.98 26.6848C149.98 27.5438 150.673 28.2373 151.531 28.2373Z" fill="#00BAFF"/>
<path d="M182.127 41.0162C182.127 41.0162 180.355 42.6791 177.99 42.3244C175.313 41.9264 173.853 39.0696 173.853 39.0696H186.417C186.504 38.5574 186.571 38.053 186.571 37.5171C186.571 33.088 182.989 29.4746 178.537 29.4746C174.085 29.4746 170.503 33.0604 170.503 37.5171C170.503 41.9737 174.085 45.5595 178.537 45.5595C180.773 45.5595 182.808 44.6532 184.244 43.1677L182.119 41.0162H182.123H182.127ZM178.545 32.954C180.627 32.954 182.394 34.1716 183.237 35.9251H173.857C174.699 34.1756 176.466 32.954 178.549 32.954H178.545Z" fill="#00BAFF"/>
<path d="M82.7855 41.0162C82.7855 41.0162 81.0143 42.6791 78.6486 42.3244C75.972 41.9264 74.5117 39.0696 74.5117 39.0696H87.076C87.1626 38.5574 87.2295 38.053 87.2295 37.5171C87.2295 33.088 83.6476 29.4746 79.1957 29.4746C74.7439 29.4746 71.162 33.0604 71.162 37.5171C71.162 41.9737 74.7439 45.5595 79.1957 45.5595C81.4315 45.5595 83.4665 44.6532 84.9032 43.1677L82.7777 41.0162H82.7816H82.7855ZM79.2036 32.954C81.2859 32.954 83.0532 34.1716 83.8955 35.9251H74.5156C75.358 34.1756 77.1489 32.954 79.2076 32.954H79.2036Z" fill="white"/>
<path d="M65.5963 29.4313V39.0893C65.5963 40.8822 64.136 42.3441 62.345 42.3441C60.5541 42.3441 59.0937 40.8822 59.0937 39.0893V21.2154H55.5787V39.0893C55.5787 40.8822 54.1184 42.3441 52.3275 42.3441C50.5365 42.3441 49.0762 40.8822 49.0762 39.0893V29.4746H46.1083V39.4203C46.1083 42.8525 48.8951 45.6462 52.3275 45.6462C54.3821 45.6462 56.2006 44.6296 57.3264 43.0771C58.4521 44.6296 60.2706 45.6462 62.3253 45.6462C65.7537 45.6462 68.5445 42.8564 68.5445 39.4203V29.3879H65.6002V29.4313H65.5963Z" fill="white"/>
<path d="M98.0893 29.6322C93.732 29.6322 90.1895 33.1747 90.1895 37.5407C90.1895 41.9067 93.7281 45.4492 98.0893 45.4492C102.451 45.4492 105.989 41.9067 105.989 37.5407C105.989 33.1747 102.451 29.6322 98.0893 29.6322ZM97.6642 42.3205C95.0309 42.3205 92.8857 40.169 92.8857 37.5368C92.8857 34.9046 95.0349 32.7531 97.6642 32.7531C100.294 32.7531 102.443 34.9046 102.443 37.5368C102.443 40.169 100.317 42.3205 97.6642 42.3205Z" fill="white"/>
<path d="M92.8897 21.2154H89.3747V45.7369H92.8897V21.2154Z" fill="white"/>
<path d="M7.89201 58.3936H4.86903L4.38488 59.824H2.31839L5.2469 51.7145H7.52988L10.4623 59.824H8.37222L7.88807 58.3936H7.89201ZM7.38424 56.8687L6.38052 53.9015L5.3886 56.8687H7.38424Z" fill="white"/>
<path d="M21.0428 59.824H19.0707L15.7722 54.8236V59.824H13.8002V51.7145H15.7722L19.0707 56.7386V51.7145H21.0428V59.824Z" fill="white"/>
<path d="M22.4558 54.8472C22.7038 54.3468 23.0463 53.9606 23.4753 53.6927C23.9044 53.4247 24.3885 53.2868 24.916 53.2868C25.3686 53.2868 25.7662 53.3774 26.1086 53.5626C26.4511 53.7478 26.7148 53.9882 26.8998 54.2916V53.3774H28.8718V59.824H26.8998V58.9098C26.7069 59.2093 26.4393 59.4536 26.0968 59.6388C25.7544 59.824 25.3568 59.9146 24.9041 59.9146C24.3806 59.9146 23.9044 59.7767 23.4753 59.5048C23.0463 59.2329 22.7038 58.8428 22.4558 58.3385C22.2039 57.8341 22.0819 57.2509 22.0819 56.5889C22.0819 55.9269 22.2079 55.3437 22.4558 54.8433V54.8472ZM26.4944 55.4383C26.2228 55.1546 25.8882 55.0127 25.4946 55.0127C25.101 55.0127 24.7703 55.1546 24.4948 55.4343C24.2232 55.7141 24.0854 56.1042 24.0854 56.5968C24.0854 57.0893 24.2232 57.4794 24.4948 57.771C24.7664 58.0587 25.101 58.2045 25.4946 58.2045C25.8882 58.2045 26.2188 58.0626 26.4944 57.7789C26.766 57.4952 26.9037 57.1051 26.9037 56.6125C26.9037 56.12 26.766 55.7299 26.4944 55.4462V55.4383Z" fill="white"/>
<path d="M33.8943 58.1493V59.824H32.8906C32.1742 59.824 31.6192 59.6506 31.2177 59.2999C30.8163 58.9492 30.6194 58.3779 30.6194 57.5858V55.0206H29.8362V53.3814H30.6194V51.8091H32.5915V53.3814H33.8825V55.0206H32.5915V57.6095C32.5915 57.8025 32.6387 57.9405 32.7292 58.0272C32.8198 58.1138 32.9772 58.1532 33.1898 58.1532H33.8943V58.1493Z" fill="white"/>
<path d="M35.1382 52.4041C34.9178 52.1992 34.8076 51.947 34.8076 51.6476C34.8076 51.3481 34.9178 51.0841 35.1382 50.8792C35.3586 50.6743 35.642 50.5718 35.9845 50.5718C36.3269 50.5718 36.6025 50.6743 36.8229 50.8792C37.0433 51.0841 37.1535 51.3402 37.1535 51.6476C37.1535 51.9549 37.0433 52.1992 36.8229 52.4041C36.6025 52.609 36.323 52.7115 35.9845 52.7115C35.646 52.7115 35.3547 52.609 35.1382 52.4041ZM36.9646 53.3814V59.8279H34.9926V53.3814H36.9646Z" fill="white"/>
<path d="M39.6254 59.5127C39.1216 59.2447 38.724 58.8586 38.4367 58.3581C38.1494 57.8577 38.0037 57.2706 38.0037 56.6007C38.0037 55.9308 38.1494 55.3555 38.4406 54.8511C38.7319 54.3468 39.1334 53.9606 39.6412 53.6887C40.1489 53.4208 40.7197 53.2828 41.3495 53.2828C41.9793 53.2828 42.55 53.4168 43.0578 53.6887C43.5655 53.9567 43.967 54.3468 44.2583 54.8511C44.5496 55.3555 44.6952 55.9387 44.6952 56.6007C44.6952 57.2627 44.5456 57.8459 44.2504 58.3503C43.9552 58.8546 43.5498 59.2408 43.0381 59.5127C42.5264 59.7806 41.9556 59.9186 41.3258 59.9186C40.6961 59.9186 40.1293 59.7846 39.6254 59.5127ZM42.2902 57.7907C42.5539 57.5149 42.6878 57.1169 42.6878 56.6007C42.6878 56.0845 42.5579 55.6865 42.302 55.4107C42.0422 55.1348 41.7273 54.993 41.3495 54.993C40.9716 54.993 40.6449 55.1309 40.393 55.4028C40.1411 55.6747 40.0112 56.0766 40.0112 56.5968C40.0112 57.1169 40.1371 57.5109 40.3851 57.7868C40.6331 58.0626 40.948 58.2045 41.3258 58.2045C41.7037 58.2045 42.0226 58.0665 42.2902 57.7868V57.7907Z" fill="white"/>
<path d="M51.4733 54.0433C51.922 54.532 52.1464 55.2058 52.1464 56.0609V59.8279H50.1862V56.3288C50.1862 55.8993 50.0759 55.5644 49.8516 55.324C49.6272 55.0836 49.3281 54.9654 48.9502 54.9654C48.5723 54.9654 48.2732 55.0836 48.0488 55.324C47.8245 55.5644 47.7142 55.8993 47.7142 56.3288V59.8279H45.7422V53.3813H47.7142V54.2364C47.915 53.9527 48.1826 53.7281 48.5212 53.5626C48.8597 53.3971 49.2415 53.3144 49.6626 53.3144C50.4145 53.3144 51.0167 53.5587 51.4693 54.0473L51.4733 54.0433Z" fill="white"/>
<path d="M53.5043 54.8472C53.7523 54.3468 54.0948 53.9606 54.5238 53.6927C54.9529 53.4247 55.437 53.2868 55.9644 53.2868C56.4171 53.2868 56.8147 53.3774 57.1571 53.5626C57.4996 53.7478 57.7633 53.9882 57.9483 54.2916V53.3774H59.9203V59.824H57.9483V58.9098C57.7554 59.2093 57.4877 59.4536 57.1453 59.6388C56.8028 59.824 56.4053 59.9146 55.9526 59.9146C55.4291 59.9146 54.9529 59.7767 54.5238 59.5048C54.0948 59.2329 53.7523 58.8428 53.5043 58.3385C53.2524 57.8341 53.1304 57.2509 53.1304 56.5889C53.1304 55.9269 53.2564 55.3437 53.5043 54.8433V54.8472ZM57.5429 55.4383C57.2713 55.1546 56.9367 55.0127 56.5431 55.0127C56.1494 55.0127 55.8188 55.1546 55.5433 55.4343C55.2717 55.7141 55.1339 56.1042 55.1339 56.5968C55.1339 57.0893 55.2717 57.4794 55.5433 57.771C55.8149 58.0587 56.1494 58.2045 56.5431 58.2045C56.9367 58.2045 57.2673 58.0626 57.5429 57.7789C57.8144 57.4952 57.9522 57.1051 57.9522 56.6125C57.9522 56.12 57.8144 55.7299 57.5429 55.4462V55.4383Z" fill="white"/>
<path d="M63.329 51.2772V59.824H61.357V51.2772H63.329Z" fill="white"/>
<path d="M72.2445 58.3936H69.2215L68.7373 59.824H66.6708L69.5993 51.7145H71.8823L74.8108 59.824H72.7207L72.2366 58.3936H72.2445ZM71.7367 56.8687L70.733 53.9015L69.741 56.8687H71.7367Z" fill="white"/>
<path d="M84.9504 53.3813L83.2067 59.8279H81.0261L80.0105 55.6471L78.9596 59.8279H76.7907L75.0352 53.3813H77.0072L77.9204 57.9917L79.0068 53.3813H81.0969L82.1912 57.968L83.0926 53.3813H84.9504Z" fill="white"/>
<path d="M85.6825 54.8472C85.9305 54.3468 86.273 53.9606 86.702 53.6927C87.131 53.4247 87.6152 53.2868 88.1426 53.2868C88.5953 53.2868 88.9929 53.3774 89.3353 53.5626C89.6777 53.7478 89.9415 53.9882 90.1265 54.2916V53.3774H92.0985V59.824H90.1265V58.9098C89.9336 59.2093 89.6659 59.4536 89.3235 59.6388C88.981 59.824 88.5835 59.9146 88.1308 59.9146C87.6073 59.9146 87.131 59.7767 86.702 59.5048C86.273 59.2329 85.9305 58.8428 85.6825 58.3385C85.4306 57.8341 85.3086 57.2509 85.3086 56.5889C85.3086 55.9269 85.4346 55.3437 85.6825 54.8433V54.8472ZM89.721 55.4383C89.4494 55.1546 89.1149 55.0127 88.7213 55.0127C88.3276 55.0127 87.997 55.1546 87.7215 55.4343C87.4499 55.7141 87.3121 56.1042 87.3121 56.5968C87.3121 57.0893 87.4499 57.4794 87.7215 57.771C87.9931 58.0587 88.3276 58.2045 88.7213 58.2045C89.1149 58.2045 89.4455 58.0626 89.721 57.7789C89.9926 57.4952 90.1304 57.1051 90.1304 56.6125C90.1304 56.12 89.9926 55.7299 89.721 55.4462V55.4383Z" fill="white"/>
<path d="M96.3692 53.6178C96.7156 53.4129 97.1014 53.3104 97.5225 53.3104V55.4028H96.9793C96.4873 55.4028 96.1173 55.5092 95.8733 55.722C95.6253 55.9348 95.5033 56.3052 95.5033 56.8371V59.8279H93.5312V53.3814H95.5033V54.4571C95.7355 54.1025 96.0228 53.8227 96.3692 53.6178Z" fill="white"/>
<path d="M98.4515 54.8472C98.6994 54.3468 99.0419 53.9606 99.4709 53.6927C99.9 53.4247 100.384 53.2868 100.912 53.2868C101.333 53.2868 101.722 53.3774 102.073 53.5508C102.423 53.7242 102.699 53.9685 102.899 54.268V51.2772H104.871V59.824H102.899V58.9019C102.714 59.2093 102.451 59.4575 102.108 59.6427C101.766 59.8279 101.368 59.9186 100.915 59.9186C100.384 59.9186 99.9039 59.7807 99.4749 59.5088C99.0458 59.2369 98.7034 58.8468 98.4554 58.3424C98.2035 57.838 98.0815 57.2548 98.0815 56.5928C98.0815 55.9308 98.2074 55.3477 98.4554 54.8472H98.4515ZM102.49 55.4383C102.218 55.1546 101.884 55.0127 101.49 55.0127C101.097 55.0127 100.766 55.1546 100.49 55.4343C100.219 55.7141 100.081 56.1042 100.081 56.5968C100.081 57.0893 100.219 57.4794 100.49 57.771C100.762 58.0587 101.097 58.2045 101.49 58.2045C101.884 58.2045 102.214 58.0626 102.49 57.7789C102.762 57.4952 102.899 57.1051 102.899 56.6125C102.899 56.12 102.762 55.7299 102.49 55.4462V55.4383Z" fill="white"/>
<path d="M119.896 51.7185L117.786 59.8279H115.397L114.106 54.4926L112.767 59.8279H110.378L108.323 51.7185H110.433L111.598 57.6213L113.039 51.7185H115.208L116.593 57.6213L117.77 51.7185H119.892H119.896Z" fill="white"/>
<path d="M121.033 52.4041C120.813 52.1992 120.703 51.947 120.703 51.6476C120.703 51.3481 120.813 51.0841 121.033 50.8792C121.254 50.6743 121.537 50.5718 121.88 50.5718C122.222 50.5718 122.498 50.6743 122.718 50.8792C122.938 51.0841 123.049 51.3402 123.049 51.6476C123.049 51.9549 122.938 52.1992 122.718 52.4041C122.498 52.609 122.218 52.7115 121.88 52.7115C121.541 52.7115 121.25 52.609 121.033 52.4041ZM122.86 53.3814V59.8279H120.888V53.3814H122.86Z" fill="white"/>
<path d="M130.02 54.0433C130.468 54.532 130.693 55.2058 130.693 56.0609V59.8279H128.732V56.3288C128.732 55.8993 128.622 55.5644 128.398 55.324C128.173 55.0836 127.874 54.9654 127.496 54.9654C127.119 54.9654 126.819 55.0836 126.595 55.324C126.371 55.5644 126.26 55.8993 126.26 56.3288V59.8279H124.288V53.3813H126.26V54.2364C126.461 53.9527 126.729 53.7281 127.067 53.5626C127.406 53.3971 127.788 53.3144 128.209 53.3144C128.961 53.3144 129.563 53.5587 130.016 54.0473L130.02 54.0433Z" fill="white"/>
<path d="M137.797 54.0433C138.246 54.532 138.471 55.2058 138.471 56.0609V59.8279H136.51V56.3288C136.51 55.8993 136.4 55.5644 136.176 55.324C135.951 55.0836 135.652 54.9654 135.274 54.9654C134.896 54.9654 134.597 55.0836 134.373 55.324C134.149 55.5644 134.038 55.8993 134.038 56.3288V59.8279H132.066V53.3813H134.038V54.2364C134.239 53.9527 134.507 53.7281 134.845 53.5626C135.184 53.3971 135.566 53.3144 135.987 53.3144C136.739 53.3144 137.341 53.5587 137.793 54.0473L137.797 54.0433Z" fill="white"/>
<path d="M139.986 52.4041C139.765 52.1992 139.655 51.947 139.655 51.6476C139.655 51.3481 139.765 51.0841 139.986 50.8792C140.206 50.6743 140.49 50.5718 140.832 50.5718C141.175 50.5718 141.45 50.6743 141.671 50.8792C141.891 51.0841 142.001 51.3402 142.001 51.6476C142.001 51.9549 141.891 52.1992 141.671 52.4041C141.45 52.609 141.171 52.7115 140.832 52.7115C140.494 52.7115 140.202 52.609 139.986 52.4041ZM141.816 53.3814V59.8279H139.844V53.3814H141.816Z" fill="white"/>
<path d="M148.976 54.0433C149.425 54.532 149.649 55.2058 149.649 56.0609V59.8279H147.689V56.3288C147.689 55.8993 147.579 55.5644 147.354 55.324C147.13 55.0836 146.831 54.9654 146.453 54.9654C146.075 54.9654 145.776 55.0836 145.552 55.324C145.327 55.5644 145.217 55.8993 145.217 56.3288V59.8279H143.245V53.3813H145.217V54.2364C145.418 53.9527 145.686 53.7281 146.024 53.5626C146.363 53.3971 146.744 53.3144 147.166 53.3144C147.917 53.3144 148.52 53.5587 148.972 54.0473L148.976 54.0433Z" fill="white"/>
<path d="M154.664 53.5666C155.006 53.7518 155.27 53.9921 155.455 54.2955V53.3814H157.427V59.8161C157.427 60.4072 157.309 60.947 157.077 61.4278C156.845 61.9085 156.486 62.2907 156.002 62.5784C155.518 62.866 154.924 63.004 154.207 63.004C153.255 63.004 152.479 62.7793 151.889 62.3301C151.295 61.8809 150.96 61.2702 150.873 60.4978H152.822C152.885 60.7461 153.03 60.9392 153.259 61.081C153.491 61.2229 153.774 61.2938 154.113 61.2938C154.522 61.2938 154.845 61.1756 155.089 60.9431C155.333 60.7067 155.451 60.3323 155.451 59.8161V58.9019C155.258 59.2014 154.995 59.4457 154.656 59.6349C154.318 59.824 153.92 59.9186 153.467 59.9186C152.936 59.9186 152.456 59.7807 152.027 59.5088C151.598 59.2369 151.255 58.8468 151.007 58.3424C150.755 57.838 150.633 57.2548 150.633 56.5928C150.633 55.9308 150.759 55.3476 151.007 54.8472C151.255 54.3468 151.598 53.9606 152.027 53.6927C152.456 53.4247 152.94 53.2868 153.467 53.2868C153.92 53.2868 154.318 53.3774 154.66 53.5626L154.664 53.5666ZM155.042 55.4383C154.77 55.1546 154.436 55.0127 154.042 55.0127C153.648 55.0127 153.318 55.1546 153.042 55.4343C152.771 55.7141 152.633 56.1042 152.633 56.5968C152.633 57.0893 152.771 57.4794 153.042 57.771C153.314 58.0587 153.648 58.2045 154.042 58.2045C154.436 58.2045 154.766 58.0626 155.042 57.7789C155.313 57.4952 155.451 57.1051 155.451 56.6125C155.451 56.12 155.313 55.7299 155.042 55.4462V55.4383Z" fill="white"/>
<path d="M161.485 53.6178C161.832 52.9913 162.316 52.5026 162.934 52.1519C163.552 51.8012 164.256 51.6279 165.04 51.6279C166 51.6279 166.823 51.88 167.508 52.3884C168.193 52.8967 168.649 53.5902 168.881 54.4689H166.713C166.551 54.13 166.323 53.8739 166.028 53.6966C165.732 53.5193 165.394 53.4326 165.02 53.4326C164.414 53.4326 163.922 53.6454 163.544 54.067C163.166 54.4886 162.977 55.056 162.977 55.7653C162.977 56.4746 163.166 57.0381 163.544 57.4637C163.922 57.8892 164.414 58.0981 165.02 58.0981C165.398 58.0981 165.732 58.0114 166.028 57.8341C166.323 57.6568 166.551 57.4006 166.713 57.0617H168.881C168.649 57.9405 168.193 58.63 167.508 59.1344C166.823 59.6388 166 59.891 165.04 59.891C164.256 59.891 163.552 59.7176 162.934 59.3669C162.316 59.0162 161.832 58.5315 161.485 57.905C161.139 57.2824 160.966 56.5692 160.966 55.7693C160.966 54.9694 161.139 54.2561 161.485 53.6257V53.6178Z" fill="white"/>
<path d="M171.322 59.5127C170.818 59.2447 170.42 58.8586 170.133 58.3581C169.846 57.8577 169.7 57.2706 169.7 56.6007C169.7 55.9308 169.846 55.3555 170.137 54.8511C170.428 54.3468 170.83 53.9606 171.338 53.6887C171.845 53.4208 172.416 53.2828 173.046 53.2828C173.676 53.2828 174.246 53.4168 174.754 53.6887C175.262 53.9567 175.663 54.3468 175.955 54.8511C176.246 55.3555 176.392 55.9387 176.392 56.6007C176.392 57.2627 176.242 57.8459 175.947 58.3503C175.652 58.8546 175.246 59.2408 174.734 59.5127C174.223 59.7806 173.652 59.9186 173.022 59.9186C172.392 59.9186 171.826 59.7846 171.322 59.5127ZM173.987 57.7907C174.25 57.5149 174.384 57.1169 174.384 56.6007C174.384 56.0845 174.254 55.6865 173.998 55.4107C173.739 55.1348 173.424 54.993 173.046 54.993C172.668 54.993 172.341 55.1309 172.089 55.4028C171.837 55.6747 171.708 56.0766 171.708 56.5968C171.708 57.1169 171.833 57.5109 172.081 57.7868C172.329 58.0626 172.644 58.2045 173.022 58.2045C173.4 58.2045 173.719 58.0665 173.987 57.7868V57.7907Z" fill="white"/>
<path d="M187.566 54.0394C188.039 54.5241 188.275 55.1979 188.275 56.0609V59.8279H186.315V56.3288C186.315 55.9111 186.204 55.592 185.984 55.3634C185.764 55.1349 185.464 55.0245 185.079 55.0245C184.693 55.0245 184.394 55.1388 184.173 55.3634C183.953 55.588 183.843 55.9111 183.843 56.3288V59.8279H181.883V56.3288C181.883 55.9111 181.772 55.592 181.552 55.3634C181.331 55.1349 181.032 55.0245 180.647 55.0245C180.261 55.0245 179.962 55.1388 179.741 55.3634C179.521 55.588 179.411 55.9111 179.411 56.3288V59.8279H177.439V53.3814H179.411V54.1892C179.611 53.9212 179.871 53.7045 180.194 53.5469C180.517 53.3892 180.883 53.3104 181.288 53.3104C181.772 53.3104 182.205 53.4129 182.587 53.6217C182.969 53.8306 183.264 54.1261 183.481 54.5123C183.705 54.1576 184.008 53.87 184.394 53.6454C184.78 53.4208 185.197 53.3104 185.649 53.3104C186.448 53.3104 187.086 53.5547 187.558 54.0394H187.566Z" fill="white"/>
<path d="M192.431 53.5666C192.77 53.3814 193.168 53.2907 193.62 53.2907C194.152 53.2907 194.632 53.4247 195.061 53.6966C195.49 53.9645 195.832 54.3507 196.08 54.8511C196.328 55.3516 196.454 55.9348 196.454 56.5968C196.454 57.2588 196.328 57.842 196.08 58.3463C195.832 58.8507 195.49 59.2408 195.061 59.5127C194.632 59.7846 194.148 59.9225 193.62 59.9225C193.175 59.9225 192.778 59.8319 192.439 59.6467C192.097 59.4615 191.829 59.2251 191.636 58.9295V62.9015H189.664V53.3853H191.636V54.2995C191.829 54 192.093 53.7557 192.431 53.5705V53.5666ZM194.041 55.4304C193.77 55.1506 193.431 55.0088 193.034 55.0088C192.636 55.0088 192.309 55.1506 192.034 55.4343C191.758 55.718 191.625 56.1081 191.625 56.6007C191.625 57.0933 191.762 57.4834 192.034 57.7671C192.306 58.0508 192.64 58.1926 193.034 58.1926C193.427 58.1926 193.762 58.0469 194.037 57.7592C194.313 57.4715 194.455 57.0814 194.455 56.5849C194.455 56.0884 194.317 55.7062 194.045 55.4225L194.041 55.4304Z" fill="white"/>
<path d="M197.478 54.8472C197.726 54.3468 198.068 53.9606 198.497 53.6927C198.926 53.4247 199.41 53.2868 199.938 53.2868C200.39 53.2868 200.788 53.3774 201.13 53.5626C201.473 53.7478 201.737 53.9882 201.922 54.2916V53.3774H203.894V59.824H201.922V58.9098C201.729 59.2093 201.461 59.4536 201.119 59.6388C200.776 59.824 200.379 59.9146 199.926 59.9146C199.402 59.9146 198.926 59.7767 198.497 59.5048C198.068 59.2329 197.726 58.8428 197.478 58.3385C197.226 57.8341 197.104 57.2509 197.104 56.5889C197.104 55.9269 197.23 55.3437 197.478 54.8433V54.8472ZM201.516 55.4383C201.245 55.1546 200.91 55.0127 200.516 55.0127C200.123 55.0127 199.792 55.1546 199.517 55.4343C199.245 55.7141 199.107 56.1042 199.107 56.5968C199.107 57.0893 199.245 57.4794 199.517 57.771C199.788 58.0587 200.123 58.2045 200.516 58.2045C200.91 58.2045 201.241 58.0626 201.516 57.7789C201.788 57.4952 201.926 57.1051 201.926 56.6125C201.926 56.12 201.788 55.7299 201.516 55.4462V55.4383Z" fill="white"/>
<path d="M211.057 54.0433C211.506 54.532 211.73 55.2058 211.73 56.0609V59.8279H209.77V56.3288C209.77 55.8993 209.66 55.5644 209.436 55.324C209.211 55.0836 208.912 54.9654 208.534 54.9654C208.156 54.9654 207.857 55.0836 207.633 55.324C207.409 55.5644 207.298 55.8993 207.298 56.3288V59.8279H205.326V53.3813H207.298V54.2364C207.499 53.9527 207.767 53.7281 208.105 53.5626C208.444 53.3971 208.826 53.3144 209.247 53.3144C209.999 53.3144 210.601 53.5587 211.053 54.0473L211.057 54.0433Z" fill="white"/>
<path d="M219.682 53.3813L215.643 62.8857H213.522L214.998 59.6073L212.38 53.3813H214.584L216.072 57.4124L217.548 53.3813H219.682Z" fill="white"/>
</g>
<defs>
<clipPath id="clip0_345_1552">
<rect width="222" height="63" fill="white"/>
</clipPath>
</defs>
</svg>
